<?xml version="1.0" standalone="no"?>
<!DOCTYPE svg PUBLIC "-//W3C//DTD SVG 20010904//EN"
 "http://www.w3.org/TR/2001/REC-SVG-20010904/DTD/svg10.dtd">
<svg version="1.0" xmlns="http://www.w3.org/2000/svg"
 width="3053pt" height="3761pt" viewBox="0 0 3053 3761"
 preserveAspectRatio="xMidYMid meet">

<g transform="translate(0.000000,3761.000000) scale(0.100000,-0.100000)"
fill="#000000" stroke="none">
<path d="M12116 37534 l-550 -64 -550 -115 -551 -114 -820 -240 -820 -239
-922 -439 -922 -440 -708 -454 -708 -453 -454 -389 -455 -388 -250 -337 c-240
-325 -256 -349 -429 -657 -164 -294 -192 -352 -348 -719 -154 -361 -176 -419
-229 -615 -85 -312 -176 -849 -238 -1412 -27 -235 -52 -432 -56 -436 -4 -4
-120 -10 -257 -12 l-250 -3 7 -97 c4 -53 10 -106 13 -117 3 -12 90 -93 194
-179 103 -86 187 -162 187 -167 0 -5 -72 -110 -160 -233 l-160 -224 11 -406
c7 -254 7 -410 1 -418 -5 -7 -247 -338 -537 -737 -291 -399 -531 -729 -536
-735 -4 -5 42 -215 102 -465 l109 -455 0 -618 0 -619 -35 -211 c-21 -122 -51
-259 -71 -322 -26 -84 -58 -252 -135 -715 -86 -519 -116 -673 -210 -1083 -170
-747 -443 -1754 -814 -3008 -287 -969 -314 -1086 -455 -2013 l-100 -655 0
-4416 0 -4415 25 0 25 0 0 3317 c0 1824 2 3314 5 3311 3 -3 21 -160 39 -349
33 -335 37 -357 135 -839 178 -870 308 -1303 599 -1995 55 -132 114 -277 131
-322 16 -45 41 -103 54 -130 14 -26 61 -133 105 -238 64 -150 147 -310 394
-755 l313 -566 358 -466 c322 -420 384 -494 633 -764 152 -165 347 -370 433
-457 l156 -159 -75 -69 c-66 -62 -102 -84 -290 -180 l-215 -109 -372 0 -373 0
0 -25 0 -25 381 0 381 0 224 116 c176 91 238 128 285 171 33 31 61 54 63 52 2
-2 -2 -211 -10 -464 -7 -253 -13 -506 -14 -562 l0 -103 25 0 25 0 1 103 c1
195 26 1017 31 1023 3 2 46 -38 94 -90 49 -52 168 -159 264 -236 96 -78 175
-146 175 -150 0 -5 -21 -24 -47 -44 l-47 -36 -150 0 -151 0 0 -155 0 -155 165
0 165 0 0 134 0 133 58 45 58 46 225 -183 c178 -144 282 -219 495 -355 357
-229 1362 -827 1444 -860 36 -15 203 -78 372 -141 l308 -114 0 -562 0 -563
-22 -4 c-21 -4 -6533 -108 -6690 -106 l-68 0 0 450 0 450 -25 0 -25 0 0 -475
0 -475 228 1 c125 0 1660 24 3412 52 2184 36 3187 49 3192 42 4 -5 9 -13 10
-17 2 -4 1358 3 3013 14 1656 11 3090 17 3188 13 l177 -7 0 -634 0 -634 188 0
c104 0 385 3 625 7 l437 6 0 629 c0 494 3 629 13 632 52 17 1528 30 5672 51
2635 13 5147 27 5583 31 l792 6 0 24 0 25 -1094 -7 -1093 -7 -6 1784 -5 1784
39 40 38 39 193 -94 c111 -53 259 -116 348 -146 l155 -53 353 -1 352 0 0 25 0
25 -343 0 -343 0 -124 39 c-102 32 -514 214 -542 240 -4 3 33 42 81 86 60 56
153 164 302 354 118 151 237 302 265 335 27 34 79 99 114 146 35 47 190 247
344 444 155 197 304 398 332 445 122 204 820 1563 899 1750 14 34 80 179 146
324 67 144 159 348 204 452 l83 190 135 625 135 625 71 605 c67 568 73 631 90
1023 10 229 21 420 25 424 3 3 3 -1558 -1 -3470 l-6 -3477 26 0 27 0 0 1729
c0 952 3 1732 8 1734 6 3 187 -3 460 -17 l102 -5 0 56 0 56 170 -5 170 -5 0
58 0 59 205 0 205 0 0 25 0 25 -412 0 c-227 0 -524 3 -660 7 l-248 6 0 59 0
58 118 1 c64 0 456 6 870 13 809 13 771 10 772 62 0 20 6 21 218 27 119 4 304
7 410 7 l192 0 0 24 0 23 -1288 -5 -1288 -5 4 1697 5 1696 -27 0 -26 0 -1 -87
c-3 -184 -18 -4 -49 557 l-31 564 -109 741 -109 740 -125 490 -125 490 -205
532 c-114 292 -278 713 -366 935 l-160 403 -155 675 c-85 371 -204 917 -265
1213 l-110 538 -35 442 c-22 280 -43 661 -58 1037 l-24 595 28 570 c25 540 30
591 78 970 28 220 87 623 130 895 67 412 99 580 194 1005 63 281 115 521 115
535 0 14 56 268 126 565 89 384 200 814 385 1490 143 523 259 951 258 952 -1
0 -198 -176 -437 -391 l-435 -393 -437 -744 c-240 -409 -512 -883 -604 -1054
-92 -170 -172 -315 -178 -321 -13 -13 41 -18 -2121 171 l-1660 145 -1960 80
c-3149 129 -3127 128 -3146 148 -9 9 -452 591 -984 1292 -533 701 -977 1286
-987 1300 -21 27 -21 -56 -2 -2012 l6 -588 -203 0 -202 0 5 69 c4 56 3 68 -8
64 -12 -4 -14 197 -14 1256 l0 1261 -25 0 c-15 0 -25 -6 -25 -15 0 -13 -2058
-2516 -2119 -2576 l-26 -27 -595 -26 c-327 -15 -607 -26 -622 -26 l-26 0 5
1015 6 1015 -25 0 -25 0 -6 -1016 c-3 -559 -7 -1017 -9 -1018 -1 -2 -412 -22
-913 -45 l-910 -41 -535 -60 c-294 -33 -822 -96 -1172 -142 -351 -45 -640 -80
-643 -76 -3 3 48 710 113 1571 107 1416 120 1568 137 1587 l19 21 -95 -6 c-52
-4 -249 -15 -439 -24 l-345 -18 -350 -159 -350 -158 -278 -230 c-273 -224
-283 -234 -480 -458 -200 -227 -203 -232 -343 -467 -142 -239 -231 -429 -334
-705 l-40 -109 16 -419 c9 -230 15 -421 12 -423 -2 -3 -49 -8 -105 -11 l-100
-7 4 29 c2 16 23 211 48 434 59 536 150 1071 234 1380 53 193 76 255 225 605
146 343 185 424 327 680 198 355 196 352 466 715 l219 295 445 382 444 383
607 390 c334 214 612 390 618 390 7 0 8 -42 5 -127 -3 -71 -9 -972 -15 -2003
-6 -1031 -12 -1939 -15 -2017 l-6 -143 25 0 c24 0 24 2 30 113 3 61 10 974 16
2027 6 1053 13 1978 16 2055 l6 140 71 47 c40 26 484 243 987 484 l915 436
820 240 820 239 549 115 548 114 572 66 571 65 478 -7 477 -7 0 27 0 26 -137
0 c-76 0 -302 2 -503 5 l-365 4 -549 -65z m-5856 -4389 c0 -7 -2821 -3059
-2831 -3063 -5 -2 -9 7 -9 20 0 13 -7 190 -15 395 l-15 371 45 119 c102 271
190 457 326 684 130 218 140 233 329 448 190 217 203 229 474 454 l280 230
340 155 341 155 305 17 c337 19 430 22 430 15z m-1036 -1509 c-564 -774 -1028
-1406 -1029 -1404 -2 2 -5 134 -6 295 l-4 292 1030 1115 c566 613 1031 1113
1033 1111 2 -1 -459 -636 -1024 -1409z m925 -551 c-45 -583 -83 -1062 -85
-1064 -2 -3 -27 -8 -54 -11 l-50 -6 5 30 c3 17 59 483 125 1036 124 1035 130
1084 135 1078 2 -2 -32 -480 -76 -1063z m-2009 -613 l0 -252 -71 -98 c-40 -53
-72 -97 -73 -98 -1 -1 -121 2 -268 5 l-268 6 332 358 c238 259 333 355 339
345 5 -7 9 -127 9 -266z m7410 -78 c0 -3 -30 -42 -66 -85 -60 -72 -69 -79
-102 -79 -21 0 -253 -11 -517 -25 -264 -14 -488 -25 -497 -25 -16 0 -18 10
-18 80 0 56 4 82 13 85 12 4 997 51 1120 54 37 0 67 -2 67 -5z m2660 -464 l0
-440 -210 0 -210 0 0 260 c0 240 6 324 36 508 4 27 2 32 -16 32 -17 0 -20 6
-20 40 l0 40 210 0 210 0 0 -440z m2800 395 c327 -14 1257 -52 2065 -85 809
-32 1523 -62 1588 -66 l117 -6 0 -318 0 -317 -952 -7 c-524 -3 -1403 -9 -1953
-12 l-1000 -6 -315 415 c-173 229 -316 421 -318 427 -3 8 22 9 85 5 48 -3 356
-17 683 -30z m-6710 -70 l0 -85 -27 0 c-16 0 -332 -20 -703 -45 -595 -41 -836
-63 -2028 -185 -743 -77 -1372 -140 -1397 -140 l-44 0 6 83 c3 45 7 84 10 86
8 10 1239 166 1793 227 l595 66 800 38 c440 20 844 38 898 39 l97 1 0 -85z
m1068 -83 c-1 -4 -37 -49 -78 -100 l-75 -92 -55 0 c-30 0 -199 -7 -375 -15
-176 -8 -346 -15 -377 -15 l-58 0 0 85 c0 61 4 87 13 91 11 4 834 49 960 53
27 0 47 -3 45 -7z m9772 -17 c141 -6 3003 -251 3028 -260 9 -3 12 -47 12 -173
l0 -170 -927 -6 c-511 -3 -1264 -9 -1675 -12 l-748 -6 0 322 0 322 83 -6 c45
-3 147 -8 227 -11z m-10840 -123 l0 -88 -529 -22 c-399 -16 -767 -40 -1502
-97 -855 -67 -1044 -84 -1544 -145 -313 -39 -585 -72 -602 -75 l-33 -6 0 44
c0 25 3 59 6 76 6 29 9 31 52 31 25 0 655 63 1401 140 1155 119 1452 147 1996
184 352 24 666 44 698 45 l57 1 0 -88z m-6355 -64 c4 -3 -28 -54 -71 -112
l-78 -106 -55 1 c-31 0 -285 15 -566 32 l-510 32 -6 65 c-3 36 -4 68 -2 73 2
4 82 8 176 8 95 1 237 5 317 9 177 9 786 8 795 -2z m2107 -133 l-8 -40 -53 -3
-53 -3 7 78 c4 43 8 79 10 81 2 2 25 7 52 10 l48 7 3 -45 c1 -25 -1 -63 -6
-85z m5076 42 c-24 -29 -103 -125 -177 -215 l-134 -162 -233 0 -234 0 0 195
c0 148 3 197 13 200 11 4 598 31 740 34 l68 1 -43 -53z m-828 -184 l0 -196
-1526 6 -1525 7 -201 -45 -202 -45 -387 0 -387 0 5 63 c3 34 7 63 8 64 1 2
273 36 606 77 549 68 693 82 1579 151 882 68 1587 110 1918 114 l112 1 0 -197z
m14245 173 c160 -14 334 -28 388 -32 53 -4 97 -11 97 -15 0 -5 -38 -79 -84
-164 -78 -144 -92 -179 -211 -537 -99 -297 -150 -433 -228 -606 -55 -122 -101
-221 -103 -219 -2 2 99 284 225 628 l229 624 -314 3 -314 2 0 170 c0 129 3
170 13 170 6 0 143 -11 302 -24z m-21295 -137 c272 -17 497 -32 499 -35 2 -2
-18 -34 -46 -71 l-49 -68 -132 -3 -132 -3 0 36 c0 32 -3 36 -22 33 -17 -2 -24
-12 -28 -33 l-5 -30 -183 -3 -183 -2 -119 100 c-66 56 -120 103 -120 106 0 6
-24 7 520 -27z m2792 -56 c-2 -38 -7 -71 -11 -74 -3 -4 -32 -10 -65 -14 l-58
-7 6 41 c3 23 9 59 12 81 l6 40 57 0 57 0 -4 -67z m-12 -170 c0 -78 -5 -83
-77 -83 -63 0 -65 1 -59 23 3 12 6 36 6 54 0 34 7 37 98 41 31 2 32 0 32 -35z
m-2830 -43 l0 -40 -44 0 c-40 0 -48 4 -76 40 l-32 40 76 0 76 0 0 -40z m140 0
l0 -40 -45 0 -45 0 0 40 0 40 45 0 45 0 0 -40z m264 28 c-39 -66 -43 -68 -131
-68 l-83 0 0 40 0 40 111 0 c85 0 109 -3 103 -12z m20576 -806 l0 -818 -210
-509 c-192 -465 -220 -525 -312 -680 -55 -93 -176 -276 -268 -405 -153 -214
-189 -257 -410 -490 l-243 -255 -286 -189 -285 -188 -201 -78 c-514 -198 -948
-330 -1086 -330 l-27 0 -6 1593 c-4 875 -8 1942 -9 2370 l-2 777 220 1 c121 1
668 5 1215 8 547 4 1201 8 1453 9 l457 2 0 -818z m607 811 c-3 -5 -123 -329
-266 -721 -144 -392 -268 -727 -275 -745 -13 -28 -14 66 -15 721 l-1 752 281
0 c154 0 278 -3 276 -7z m-4007 -2403 c0 -1587 3 -2390 10 -2390 7 0 10 -142
10 -405 l0 -405 -37 0 c-91 0 -3021 -40 -3222 -44 l-224 -4 6 616 5 617 62
595 62 595 154 577 c131 490 171 624 265 888 61 171 109 317 106 324 -3 7
-242 325 -532 706 -289 381 -525 694 -523 696 4 3 2360 19 3336 22 l522 2 0
-2390z m-11252 2360 l772 0 0 -1134 0 -1134 -92 -6 c-51 -3 -185 -8 -298 -12
-113 -3 -740 -39 -1395 -80 l-1190 -74 -695 -84 c-382 -46 -696 -83 -696 -83
-1 1 -7 443 -13 982 -6 539 -14 1107 -17 1263 l-6 282 478 0 479 1 195 44 195
45 755 -5 c415 -3 1103 -5 1528 -5z m1237 -10 c-15 -25 -399 -485 -406 -488
-5 -2 -9 109 -9 247 l0 251 211 0 c138 0 208 -3 204 -10z m3467 -2400 c9
-1317 17 -2576 17 -2797 l1 -403 -225 0 -225 0 -1 988 c-1 543 -2 1803 -3
2800 l-2 1812 210 -2 211 -3 17 -2395z m-11157 2350 c14 -15 31 -20 72 -20
l53 0 0 -254 0 -254 -167 -228 c-255 -351 -274 -376 -279 -371 -2 2 -9 163
-14 357 l-10 353 156 219 c86 120 159 218 163 218 5 0 16 -9 26 -20z m265
-143 l0 -123 -40 -53 c-21 -30 -42 -56 -45 -59 -3 -3 -5 76 -5 176 l0 182 45
0 45 0 0 -123z m170 117 c0 -10 -105 -154 -112 -154 -5 0 -8 36 -8 80 l0 80
60 0 c33 0 60 -3 60 -6z m2365 -1919 l7 -610 -148 -18 c-81 -9 -149 -15 -152
-12 -5 5 255 2188 265 2225 7 24 11 -185 28 -1585z m4595 1201 l111 -185 44
-412 c40 -363 45 -439 45 -636 l0 -223 -62 0 c-35 0 -107 -3 -160 -7 l-98 -6
0 826 c0 455 2 827 4 827 3 0 55 -83 116 -184z m204 -1537 c3 -17 6 -69 6
-115 l0 -84 -112 0 c-62 0 -137 -3 -165 -6 l-53 -7 0 116 0 116 68 4 c37 2
108 4 158 5 l92 2 6 -31z m-374 -93 l0 -113 -152 -6 c-84 -4 -245 -9 -358 -13
-281 -8 -1880 -145 -2960 -253 -487 -49 -887 -87 -890 -84 -3 3 -7 58 -9 123
l-3 119 33 5 c19 4 358 44 754 91 l720 84 1070 67 c886 55 1400 82 1748 93
l47 1 0 -114z m374 -768 c-4 -337 -9 -1020 -13 -1518 l-6 -905 -765 -7 c-421
-4 -1119 -11 -1552 -14 l-788 -6 0 -25 0 -26 758 7 c416 3 1114 9 1550 12
l792 7 0 -115 0 -114 -742 -37 c-621 -31 -921 -52 -1828 -127 -597 -49 -1109
-92 -1137 -95 l-53 -6 0 535 0 536 -25 0 -25 0 0 -535 0 -535 -22 -4 c-56 -12
-691 -57 -763 -54 l-80 3 -19 1628 c-11 895 -16 1630 -13 1634 4 3 403 46 887
94 1066 107 2690 246 2965 254 110 3 269 8 353 12 l152 6 0 -687 0 -686 25 0
25 0 0 684 0 685 38 4 c20 2 94 4 164 5 l128 2 -6 -612z m-4792 415 c2 -65 3
-120 1 -123 -5 -5 -326 -38 -334 -34 -10 6 34 244 45 245 6 0 56 6 111 13 55
8 116 14 136 15 l37 1 4 -117z m17843 6 c-9 -17 -19 -29 -22 -26 -5 5 25 57
33 57 3 0 -3 -14 -11 -31z m-17821 -1649 c9 -800 16 -1532 16 -1626 l0 -170
-507 4 c-280 2 -509 5 -510 6 -1 1 49 200 113 442 l115 439 194 1164 c106 639
196 1165 198 1167 7 8 352 41 358 35 4 -3 14 -661 23 -1461z m17270 878 c-39
-67 -109 -147 -188 -215 -52 -46 -98 -83 -101 -83 -4 0 59 70 140 155 140 147
166 172 149 143z m-628 -595 c-111 -96 -134 -111 -212 -141 -48 -18 -89 -31
-90 -29 -4 4 408 276 419 277 5 0 -48 -48 -117 -107z m-631 -613 c123 -200
456 -773 452 -776 -1 -1 -182 -4 -402 -8 l-400 -7 -90 168 c-49 93 -149 275
-222 407 -73 131 -133 242 -133 247 0 4 39 19 88 34 104 31 391 126 482 159
49 19 68 22 76 13 6 -7 73 -113 149 -237z m-719 -217 c182 -327 304 -554 304
-565 0 -4 -58 -8 -130 -8 l-130 0 -44 88 c-24 48 -112 210 -195 361 -170 308
-181 341 -113 341 20 1 64 7 97 14 33 8 63 14 67 15 3 1 68 -110 144 -246z
m-202 -216 c156 -281 189 -347 181 -356 -4 -3 -78 -8 -166 -10 l-159 -3 0 308
c0 186 4 304 9 299 5 -6 66 -113 135 -238z m1629 -840 c108 -243 218 -491 243
-552 590 -1425 970 -2369 1181 -2930 l244 -650 139 -500 c77 -275 142 -516
145 -536 l7 -36 -639 -6 c-846 -9 -1523 -9 -1523 1 0 4 25 142 55 307 43 233
65 392 98 715 l44 415 -12 515 -12 515 -107 545 -107 545 -125 365 c-234 684
-390 1101 -530 1415 l-133 300 142 5 c78 3 266 7 417 8 l275 2 198 -443z
m-1337 281 c71 -141 209 -481 202 -498 -5 -12 -621 69 -630 83 -4 6 -8 135 -8
284 l0 272 143 4 c78 1 159 4 179 5 l38 2 76 -152z m391 -170 c147 -335 284
-701 524 -1398 l128 -375 107 -545 107 -545 12 -510 12 -510 -43 -410 c-34
-322 -56 -477 -100 -721 l-57 -311 -531 -6 c-292 -4 -622 -7 -733 -7 l-203 0
0 60 c0 57 -1 60 -25 60 -24 0 -25 -3 -25 -59 l0 -58 -1137 -6 c-626 -4 -1415
-8 -1753 -9 l-615 -3 -6 1105 c-4 608 -10 1770 -14 2583 l-7 1477 764 0 764 0
1019 -60 c938 -56 1047 -64 1360 -104 187 -24 341 -42 343 -41 9 8 -166 441
-227 562 -39 79 -71 145 -71 148 0 3 60 5 133 5 l132 0 142 -322z m-875 32 l3
-280 -37 0 c-20 0 -461 25 -979 55 l-942 55 -758 0 -759 0 0 200 c0 110 1 200
3 201 3 2 3040 46 3264 48 l202 1 3 -280z m-6507 -6247 c24 -3563 46 -6769 49
-7125 l5 -648 -244 0 -245 0 0 373 c0 204 -3 828 -7 1385 l-6 1012 46 0 c43 0
47 2 47 25 0 23 -4 25 -43 25 l-44 0 -6 302 c-4 166 -7 800 -7 1410 l0 1108
60 0 c57 0 60 1 60 25 0 24 -3 25 -59 25 l-59 0 -6 143 c-3 78 -10 1746 -16
3707 -5 1961 -13 3823 -16 4137 l-6 573 223 2 c123 2 226 2 228 1 2 -1 23
-2917 46 -6480z m-3645 6107 c0 -38 -1 -70 -2 -70 -2 0 -511 -31 -1133 -70
-1078 -66 -1163 -73 -1845 -144 -393 -42 -730 -77 -747 -80 l-33 -5 0 89 0 89
53 6 c28 3 544 46 1146 96 829 68 1250 98 1740 123 355 18 685 34 734 35 l87
1 0 -70z m-3 -777 c-4 -362 -9 -1101 -12 -1643 -3 -542 -8 -1049 -11 -1127
l-6 -143 -1864 0 -1864 0 0 1635 0 1635 23 4 c12 3 353 39 757 82 689 71 802
80 1820 144 597 37 1103 68 1124 69 l39 1 -6 -657z m-3807 497 l0 -89 -32 -5
c-71 -12 -323 -36 -372 -36 -47 1 -49 2 -32 15 20 15 20 15 0 15 -10 0 -98 -7
-194 -15 -96 -8 -187 -15 -202 -15 l-28 0 0 80 0 80 108 1 c79 0 681 47 745
58 4 0 7 -39 7 -89z m-1052 33 l142 -6 0 -79 0 -78 -544 0 -543 0 20 85 21 85
381 0 c209 0 444 -3 523 -7z m1052 -1810 l0 -1636 -1136 6 c-625 3 -1138 8
-1140 10 -6 6 -64 281 -148 710 l-83 418 165 660 c91 363 168 657 172 652 5
-4 74 -163 155 -353 129 -301 166 -401 290 -785 l143 -440 73 -420 c40 -231
75 -423 78 -427 4 -4 15 -5 27 -2 20 5 18 15 -54 422 l-74 417 10 310 10 310
70 360 70 361 155 298 155 298 188 156 c104 85 224 181 267 214 l79 58 96 1
c73 0 336 24 425 38 4 0 7 -735 7 -1636z m-646 1578 c-10 -10 -118 -99 -239
-198 l-220 -181 -158 -305 -157 -305 -71 -368 c-67 -351 -71 -379 -79 -577 -5
-115 -11 -211 -13 -214 -5 -4 -15 26 -156 458 -59 182 -125 354 -251 649
l-172 403 67 291 c36 160 71 308 76 329 l10 37 691 0 c669 -1 691 -1 672 -19z
m-1824 -2516 c33 -170 78 -393 100 -495 22 -101 40 -186 40 -187 0 -2 -109 -3
-241 -3 -225 0 -241 1 -237 18 101 409 264 1009 270 995 4 -10 35 -157 68
-328z m20200 -2271 c0 -3 51 -236 114 -517 75 -336 121 -562 132 -658 l18
-145 -28 -140 c-43 -220 -294 -1283 -317 -1346 l-21 -58 -53 0 -52 0 -6 482
c-4 265 -7 697 -7 960 l0 478 -27 0 -26 0 6 -960 7 -960 -768 0 c-423 0 -1114
-3 -1535 -7 -519 -4 -767 -3 -767 4 0 6 82 160 183 344 101 184 244 451 319
594 133 255 138 267 276 660 165 470 346 1043 371 1170 l18 90 664 5 c1186 9
1499 10 1499 4z m-2220 -26 c-1 -82 -173 -639 -379 -1225 -140 -398 -140 -398
-289 -683 -145 -278 -485 -903 -505 -927 -7 -9 -47 -13 -138 -13 l-129 0 0
468 c0 258 -3 901 -7 1430 l-6 962 384 3 c211 1 538 3 727 5 l342 2 0 -22z
m-1497 -950 c4 -529 7 -1172 7 -1430 l0 -468 -673 0 c-371 0 -843 -3 -1050 -7
l-377 -6 0 -23 0 -22 1050 6 1050 5 0 -211 0 -212 -32 -52 c-109 -177 -1134
-1340 -1421 -1611 l-145 -137 -58 102 c-31 57 -63 112 -71 124 -12 19 -4 28
117 134 72 62 130 115 130 117 0 1 -38 3 -84 3 l-85 0 -102 -90 c-57 -49 -104
-88 -106 -86 -2 2 5 42 16 90 l19 86 -59 0 c-53 0 -59 -2 -64 -22 -3 -13 -29
-137 -58 -275 l-54 -253 59 0 c52 0 58 2 63 23 3 12 12 51 19 87 12 53 22 71
52 97 l37 33 64 -113 c35 -61 70 -116 77 -122 10 -8 -48 -69 -238 -251 l-250
-241 -654 -8 c-359 -4 -655 -5 -657 -3 -5 5 -33 5672 -28 5678 4 5 1281 13
2874 18 l626 2 6 -962z m-16696 -337 l201 -6 292 -365 c276 -345 312 -385 658
-740 282 -290 395 -398 493 -475 71 -54 126 -101 124 -104 -6 -5 -2577 -32
-2582 -27 -2 2 18 284 46 627 l50 624 62 238 62 237 196 -1 c108 -1 287 -5
398 -8z m1398 -16 c462 -3 927 -8 1034 -11 l193 -7 34 -29 34 -30 0 -1104 c0
-607 -3 -1104 -7 -1104 -8 1 -529 381 -671 490 -39 30 -71 58 -72 62 0 4 145
9 323 10 l322 3 3 25 3 25 -366 -3 -366 -2 -154 120 c-126 99 -213 182 -483
458 -180 185 -357 369 -393 407 -66 72 -551 677 -558 697 -2 7 40 8 140 4 79
-3 522 -8 984 -11z m2440 -223 c251 -185 310 -223 565 -366 437 -244 1169
-745 1586 -1084 l219 -178 3 -155 c2 -85 0 -231 -3 -326 l-7 -172 -217 163
c-575 432 -1429 1019 -1882 1294 -268 163 -413 260 -734 493 -430 310 -624
472 -625 519 l0 26 408 -4 407 -4 280 -206z m1759 181 l628 -6 -7 -251 c-4
-138 -8 -251 -9 -252 -48 -27 -1046 -444 -1056 -441 -9 2 -112 69 -230 148
-118 78 -341 213 -495 299 -240 134 -314 181 -515 329 -129 95 -239 178 -245
183 -10 10 233 9 1929 -9z m716 -233 c0 -222 -1 -230 -21 -240 -11 -7 -23 -9
-26 -7 -3 3 -2 112 3 241 6 221 8 236 25 236 18 0 19 -12 19 -230z m14456
-190 c43 -338 46 -372 53 -705 4 -192 6 -353 4 -357 -2 -5 -105 -8 -229 -8
-240 0 -241 0 -214 50 12 22 283 1172 305 1295 9 50 19 97 22 105 8 19 4 48
59 -380z m-17916 234 c36 -34 252 -196 480 -361 334 -241 480 -339 750 -503
342 -207 756 -486 1322 -888 l317 -226 -50 -16 c-28 -10 -63 -30 -79 -45 -29
-28 -65 -111 -51 -119 4 -3 31 -8 59 -12 49 -6 52 -5 52 15 0 26 42 71 66 71
25 0 54 -30 54 -55 0 -40 -24 -59 -73 -60 -44 0 -46 -1 -52 -35 -3 -19 -8 -43
-11 -52 -5 -15 2 -18 40 -18 35 0 48 -5 60 -22 9 -12 16 -30 16 -39 0 -30 -39
-68 -77 -75 -32 -6 -40 -3 -60 20 -13 15 -23 38 -23 52 0 26 -8 28 -72 18 -31
-5 -38 -11 -38 -30 0 -127 161 -202 282 -131 83 49 119 145 80 219 -17 33 -18
39 -5 50 24 20 43 65 43 103 0 19 2 35 5 35 3 0 75 -53 161 -117 l155 -116 -3
-974 -3 -973 78 0 77 0 0 -311 0 -311 -242 235 c-458 443 -1138 991 -1757
1415 -174 119 -440 309 -592 422 -151 113 -442 324 -647 469 l-372 264 0 1100
0 1100 23 -19 c12 -10 51 -46 87 -80z m3500 -989 c0 -371 -3 -675 -6 -675 -3
0 -23 15 -44 33 l-40 32 0 622 0 623 38 19 c20 11 40 20 45 21 4 0 7 -304 7
-675z m-140 110 l0 -505 -106 0 -106 0 -117 93 c-64 50 -241 180 -393 287
-152 107 -274 198 -270 202 7 7 972 426 985 427 4 1 7 -226 7 -504z m13940
-624 l0 -149 -239 -539 -238 -539 -377 -614 c-207 -337 -399 -644 -426 -680
l-50 -67 -302 -7 c-167 -3 -627 -9 -1024 -12 l-721 -7 -6 228 c-4 126 -7 650
-7 1165 l0 937 138 211 137 211 535 3 c294 2 995 4 1558 6 l1022 2 0 -149z
m130 145 c0 -9 -70 -156 -75 -156 -3 0 -5 36 -5 80 l0 80 40 0 c22 0 40 -2 40
-4z m550 -205 c0 -137 -12 -387 -35 -721 l-36 -511 -145 -502 c-80 -276 -179
-596 -221 -712 -77 -214 -108 -283 -73 -159 11 38 20 72 20 76 0 5 -27 8 -60
8 l-60 0 0 183 c-1 100 -5 645 -10 1211 l-8 1029 60 136 c33 74 64 144 69 153
9 16 31 18 254 18 l245 0 0 -209z m-3860 194 c0 -8 -209 -325 -215 -325 -3 0
-5 74 -5 165 l0 165 110 0 c61 0 110 -2 110 -5z m-10760 -126 l0 -60 -27 20
c-16 11 -48 38 -73 60 l-45 40 73 1 72 0 0 -61z m-4237 -101 c73 -57 264 -199
425 -317 l292 -214 0 -1083 0 -1084 -432 0 -433 0 -186 133 c-227 162 -693
562 -1140 980 -288 268 -346 328 -637 659 -189 215 -391 457 -495 593 l-176
229 -6 83 c-4 46 -5 86 -2 89 2 3 546 11 1208 18 662 7 1259 14 1327 15 l123
1 132 -102z m4347 -440 c0 -175 -3 -318 -7 -318 -5 0 -20 10 -36 23 l-27 22 7
323 6 323 29 -28 28 -27 0 -318z m13844 -1049 l6 -996 -636 -7 c-350 -4 -638
-5 -641 -2 -3 2 13 28 35 58 21 29 207 327 412 662 l373 608 192 432 c105 237
202 456 215 487 l25 57 6 -152 c4 -83 9 -599 13 -1147z m-20796 1071 c77 -102
286 -350 464 -551 293 -333 351 -393 633 -655 423 -395 904 -810 1103 -952
l163 -117 -563 -7 c-310 -4 -781 -7 -1047 -5 l-485 2 -47 120 c-46 114 -55
155 -178 805 l-130 685 -36 395 c-36 410 -41 491 -26 475 4 -6 71 -93 149
-195z m17344 -982 c2 -612 2 -1115 0 -1118 -4 -5 -2094 -29 -2101 -24 -2 2 72
77 165 166 93 90 205 198 250 240 44 43 88 78 98 78 10 0 14 5 10 11 -3 6 61
76 152 162 201 194 840 900 1138 1257 126 151 238 290 250 307 11 18 24 33 27
33 4 0 9 -501 11 -1112z m-10882 868 c0 -26 -6 -18 -14 19 -5 22 -4 26 4 15 5
-8 10 -24 10 -34z m-2680 -327 c173 -123 438 -315 588 -426 149 -112 413 -299
585 -417 616 -422 1340 -1008 1779 -1438 l216 -213 7 -1056 6 -1056 -167 -6
c-92 -4 -253 -7 -358 -7 l-190 0 -41 39 c-22 22 -164 143 -315 271 -241 203
-335 273 -760 569 -814 567 -1082 756 -1428 1006 l-332 240 0 302 0 303 320 0
320 0 0 25 0 25 -320 0 -320 0 0 1066 0 1066 48 -35 c26 -19 189 -135 362
-258z m2659 106 l0 -20 -9 20 c-5 11 -9 27 -9 35 -1 13 0 13 9 0 5 -8 9 -24 9
-35z m496 -67 l44 -33 1 -893 0 -893 -52 3 -53 3 0 43 c1 23 2 438 3 922 1
484 4 880 7 880 3 0 26 -15 50 -32z m8481 -879 c-15 -67 -25 -123 -24 -125 2
-1 73 58 157 132 85 74 156 132 159 129 3 -3 3 -6 1 -8 -2 -1 -42 -36 -89 -77
-47 -41 -87 -75 -89 -77 -2 -1 31 -64 73 -139 42 -75 75 -138 72 -141 -4 -4
-30 38 -116 189 l-43 77 -57 -49 c-77 -67 -78 -67 -94 -144 -13 -64 -26 -96
-26 -65 0 13 71 359 86 419 4 14 9 19 11 13 3 -7 -7 -68 -21 -134z m10574
-808 c0 -17 -74 -20 -585 -26 -275 -3 -641 -8 -812 -12 -308 -6 -313 -6 -313
14 0 11 3 23 7 26 10 11 1703 8 1703 -2z m-5190 -276 l0 -245 -60 -165 -59
-165 -345 -553 -346 -552 -395 -455 c-218 -250 -400 -456 -405 -458 -6 -2 -10
6 -10 19 l0 22 -885 -5 -885 -6 0 194 0 193 159 148 c119 110 286 290 655 705
490 552 498 562 872 1058 l377 500 296 3 c163 1 461 3 664 5 l367 2 0 -245z
m88 173 c-31 -111 -37 -113 -38 -15 l0 87 29 0 29 0 -20 -72z m-1490 52 c-1
-5 -164 -222 -360 -482 -350 -464 -367 -485 -860 -1039 -334 -376 -546 -605
-631 -684 -70 -64 -130 -115 -133 -112 -3 3 -8 523 -11 1156 l-6 1151 329 1
c276 2 965 9 1537 17 86 1 137 -2 135 -8z m-2054 -22 c3 -7 7 -540 10 -1184
l5 -1171 -225 -207 -226 -206 -432 0 c-238 0 -663 -3 -944 -7 l-512 -6 0 -24
0 -24 918 7 c908 6 917 6 897 -13 -96 -93 -311 -278 -780 -672 -536 -451 -562
-471 -1024 -799 -284 -202 -610 -422 -810 -549 l-336 -212 -6 832 c-3 458 -8
1385 -10 2062 l-4 1230 260 165 c197 124 358 239 654 464 l394 299 1041 12
c573 7 1060 13 1084 13 27 1 44 -3 46 -10z m-2279 -28 c-3 -5 -164 -130 -357
-277 -249 -188 -425 -313 -601 -425 -138 -87 -253 -156 -256 -152 -3 3 -7 196
-9 430 l-3 424 303 3 c809 7 929 7 923 -3z m-12185 -456 l440 -315 0 -340 0
-339 25 0 25 0 0 316 c0 280 2 315 15 310 9 -3 167 -115 353 -249 302 -218
782 -556 1562 -1097 197 -137 336 -244 540 -416 151 -128 286 -244 299 -258
l24 -26 -954 0 c-525 0 -1187 -3 -1471 -7 l-518 -6 0 -24 c0 -22 3 -23 73 -23
l74 0 6 -137 c9 -172 9 -363 1 -363 -28 0 -940 684 -1353 1014 -201 160 -516
408 -700 551 l-336 260 -157 251 -156 251 -187 464 c-103 255 -189 470 -192
476 -4 10 130 13 633 16 352 1 836 3 1076 5 l438 2 440 -316z m440 36 c0 -154
-3 -280 -6 -280 -8 0 -774 550 -774 556 0 2 176 4 390 4 l390 0 0 -280z
m21637 250 l183 0 0 -32 0 -33 -107 3 c-60 1 -136 3 -171 5 l-62 2 0 -55 0
-55 -257 11 c-142 7 -259 12 -260 13 -7 3 -2 139 5 146 4 4 115 5 246 1 132
-3 322 -6 423 -6z m-23617 -1774 c135 -105 421 -330 635 -501 358 -286 1002
-773 1288 -974 l117 -82 0 -220 c0 -120 -3 -219 -7 -219 -5 0 -112 76 -239
168 -222 161 -252 187 -825 718 -679 630 -1052 1008 -1147 1162 -30 48 -63
102 -75 121 -27 45 -34 50 253 -173z m16020 -626 l0 -170 -181 0 c-112 0 -179
4 -177 10 3 8 349 329 356 330 1 0 2 -76 2 -170z m1804 -231 c-10 -12 -266
-216 -569 -453 -475 -373 -592 -460 -858 -636 -169 -111 -310 -201 -313 -198
-2 3 -7 296 -11 651 l-6 647 209 3 c115 1 515 3 888 5 l679 2 -19 -21z m-1804
-327 c0 -186 3 -488 7 -669 l6 -331 -219 -145 -219 -145 -779 -367 -779 -367
-731 -215 c-402 -117 -741 -216 -754 -220 l-22 -5 2 243 3 243 365 231 c234
148 534 351 835 566 458 326 485 347 1035 809 310 261 621 528 690 592 l125
117 218 0 217 1 0 -338z m-6541 -49 c-1 -153 -4 -268 -6 -255 l-4 22 -235 0
-234 0 0 255 0 255 240 0 240 0 -1 -277z m-3861 -71 c1 -204 -1 -332 -7 -330
-5 1 -154 150 -331 330 l-321 328 223 3 c123 1 270 3 328 2 l105 0 3 -333z
m-356 -59 l388 -388 0 -445 0 -445 -79 -260 c-55 -181 -101 -308 -150 -417
-39 -87 -71 -161 -71 -165 0 -5 54 -53 120 -107 66 -55 118 -102 116 -104 -3
-2 -139 79 -303 181 -342 212 -1435 867 -1847 1107 -319 186 -740 455 -1098
704 l-247 171 -1 136 c0 75 -3 197 -7 272 l-6 137 249 3 c137 1 766 3 1399 5
l1150 2 387 -387z m4218 -155 c3 -24 30 -4135 30 -4490 l0 -498 -239 0 -239 0
-6 1128 c-3 620 -8 1247 -11 1395 l-5 267 103 0 c57 0 165 3 240 7 136 6 137
6 137 30 l0 24 -235 -7 c-197 -6 -235 -5 -239 7 -2 8 -7 492 -11 1077 l-7
1062 241 0 c133 0 241 -1 241 -2z m-7140 -247 c302 -211 758 -503 1055 -676
672 -392 2036 -1214 2075 -1251 12 -12 -136 -14 -1003 -14 l-1017 0 0 -25 0
-25 1058 0 1059 0 6 -687 c3 -378 4 -689 2 -692 -14 -13 -712 269 -1258 508
l-631 276 -370 847 -371 848 -427 307 -428 308 0 223 0 224 28 -18 c15 -9 115
-79 222 -153z m17159 -3327 l1 -1352 -422 -6 c-233 -3 -998 -8 -1700 -12
l-1278 -6 0 179 c0 98 -3 363 -6 588 l-7 410 249 129 c137 71 351 182 476 247
124 65 270 147 325 182 54 35 278 181 498 323 220 142 495 322 611 399 230
152 196 123 928 796 l311 286 6 -406 c3 -223 7 -1014 8 -1757z m-12203 -34
c893 -751 1623 -1368 1623 -1372 1 -5 -72 -8 -161 -8 l-163 1 -163 146 c-138
123 -196 167 -373 279 l-210 133 -324 101 c-484 150 -623 199 -1286 452 l-606
232 -6 305 c-4 168 -7 485 -7 704 l0 398 27 -3 c19 -2 522 -419 1649 -1368z
m-8266 1185 l0 -105 -115 0 -115 0 0 105 0 105 115 0 115 0 0 -105z m5333
-761 c327 -144 698 -298 887 -369 l325 -123 3 -322 c2 -262 0 -321 -11 -317
-7 3 -213 61 -457 130 -418 118 -459 132 -675 225 l-230 99 -172 384 c-247
548 -243 539 -237 539 2 0 258 -111 567 -246z m-267 -556 l69 -157 255 -110
c242 -103 276 -115 655 -221 220 -61 424 -118 453 -126 l52 -15 0 -170 c0
-156 -1 -169 -18 -169 -10 0 -91 13 -182 30 -90 16 -164 29 -165 27 -2 -1 -5
-12 -9 -23 -7 -23 -22 -19 304 -78 63 -12 65 -13 68 -45 3 -31 3 -32 -30 -27
-18 4 -93 15 -167 26 -74 11 -146 26 -161 34 -21 10 -993 759 -1033 796 -8 7
-207 459 -207 469 1 11 45 -81 116 -241z m2144 -190 c640 -245 778 -293 1256
-442 l331 -102 203 -130 c158 -100 234 -156 343 -253 77 -69 136 -126 130
-128 -5 -2 -104 19 -219 47 -115 28 -569 129 -1009 225 -649 141 -1182 263
-1602 368 l-43 10 0 320 c0 300 1 319 18 312 9 -4 276 -106 592 -227z m9809
-729 l1 -286 -632 -6 c-348 -4 -1324 -9 -2168 -11 -1340 -4 -1518 -3 -1405 9
72 7 263 36 425 64 162 28 376 64 475 81 99 17 293 60 430 96 706 186 1208
325 1555 433 965 298 918 281 1120 385 l185 95 6 -287 c3 -158 7 -416 8 -573z
m-13873 735 c38 -14 254 -93 479 -174 398 -144 894 -296 1430 -440 132 -36
1167 -339 1315 -385 16 -5 -23 32 -61 59 -13 8 -21 17 -18 20 2 2 58 -4 124
-15 66 -10 123 -18 128 -19 4 0 7 -27 7 -60 l0 -60 -1745 0 -1745 0 0 550 c0
310 4 550 9 550 5 0 40 -12 77 -26z m3520 -478 c132 -39 1016 -241 1659 -380
396 -86 763 -167 815 -180 l95 -24 -600 1 -600 2 -717 130 -718 130 0 168 c0
92 4 167 8 167 5 0 31 -6 58 -14z m463 -466 c278 -50 517 -95 531 -100 69 -24
-116 -4 -557 60 -265 39 -486 70 -492 70 -6 0 -11 14 -11 30 0 17 5 30 12 30
6 0 239 -41 517 -90z m-194 -65 c176 -25 329 -50 340 -55 12 -5 -118 -9 -327
-9 l-348 -1 0 55 c0 30 3 55 8 55 4 0 151 -20 327 -45z m2595 -543 c0 -242 -3
-521 -7 -620 l-6 -182 -34 0 -33 0 0 620 0 620 40 0 40 0 0 -438z m423 206 c4
-128 7 -407 7 -620 l0 -388 -193 0 -194 0 4 608 c3 334 6 613 8 620 3 9 49 12
183 12 l179 0 6 -232z m500 80 c4 -83 7 -359 7 -614 l0 -462 -222 -4 c-123 -2
-224 -4 -224 -3 -1 0 -4 278 -7 618 l-5 617 222 0 223 0 6 -152z m147 -468 l0
-610 -44 0 -44 0 -4 603 c-3 410 0 604 7 609 5 4 27 8 48 8 l37 0 0 -610z"/>
<path d="M10367 21758 c-4 -331 -7 -918 -7 -1305 l0 -703 25 0 25 0 0 703 c0
387 3 974 7 1305 l6 602 -25 0 -25 0 -6 -602z"/>
<path d="M9494 14572 c-18 -21 -60 -54 -95 -75 -60 -35 -64 -40 -75 -87 -6
-28 -10 -50 -9 -50 1 0 30 9 64 21 35 11 65 18 67 16 4 -3 -38 -216 -61 -315
-5 -22 -4 -23 52 -20 l57 3 9 40 c4 22 30 145 56 273 l48 232 -41 -1 c-34 -1
-46 -7 -72 -37z m3 -249 c-23 -111 -45 -204 -48 -208 -4 -3 11 78 32 182 48
231 49 236 54 232 2 -3 -15 -95 -38 -206z"/>
<path d="M9026 13724 c-27 -25 -71 -56 -96 -69 -42 -21 -49 -29 -59 -71 -7
-25 -10 -49 -7 -51 3 -3 32 4 65 15 74 25 72 37 31 -156 -16 -78 -30 -146 -30
-152 0 -5 25 -10 55 -10 30 0 55 2 55 4 0 2 25 122 55 267 30 145 55 265 55
266 0 2 -17 3 -37 3 -31 -1 -47 -10 -87 -46z m14 -244 c-23 -107 -43 -197 -47
-200 -3 -3 -3 6 0 20 3 14 22 108 43 209 21 101 39 180 41 175 2 -6 -15 -97
-37 -204z"/>
<path d="M9350 13763 c-57 -22 -110 -94 -110 -151 0 -27 3 -30 46 -36 52 -7
64 -3 64 23 0 56 78 92 113 53 40 -43 21 -72 -117 -186 -81 -66 -110 -97 -130
-138 -14 -28 -26 -62 -26 -75 l0 -23 169 0 169 0 11 44 c6 25 11 47 11 50 0 3
-44 7 -97 8 l-97 3 98 84 c104 89 136 135 136 201 0 47 -37 109 -80 131 -34
18 -125 25 -160 12z m-33 -108 c-7 -14 -16 -25 -20 -25 -8 0 -2 14 16 38 15
19 16 14 4 -13z m213 -82 c-11 -17 -11 -17 -6 0 3 10 7 33 8 50 l1 32 4 -32
c2 -18 -1 -41 -7 -50z m-257 -258 c-3 -9 -8 -14 -10 -11 -3 3 -2 9 2 15 9 16
15 13 8 -4z"/>
<path d="M7499 11950 c-26 -26 -69 -58 -97 -71 -47 -23 -50 -27 -60 -74 -6
-27 -9 -51 -8 -53 2 -1 32 7 67 17 35 11 64 19 65 18 1 -1 -14 -74 -32 -162
-18 -88 -33 -163 -34 -167 0 -5 25 -8 55 -8 48 0 55 3 60 23 13 54 105 509
105 517 0 6 -17 9 -37 8 -31 -1 -47 -10 -84 -48z m12 -250 c-22 -106 -43 -196
-47 -199 -4 -3 -5 4 -2 16 3 12 23 106 44 209 21 103 39 183 41 177 2 -5 -14
-97 -36 -203z"/>
<path d="M7852 11989 c-101 -30 -191 -214 -180 -369 9 -119 60 -175 159 -175
68 1 112 27 157 94 49 74 67 142 67 258 0 87 -3 105 -21 129 -45 61 -113 84
-182 63z m84 -106 c14 -14 16 -30 11 -97 -6 -98 -31 -178 -68 -217 -32 -35
-62 -37 -83 -7 -41 58 12 277 76 322 29 20 42 20 64 -1z m72 -120 c-5 -70 -22
-142 -32 -132 -3 2 2 29 10 59 8 30 14 76 14 102 0 26 3 48 6 48 4 0 4 -35 2
-77z m-249 26 c-6 -19 -16 -68 -24 -109 -12 -69 -13 -71 -14 -29 -1 43 35 186
45 177 2 -2 -1 -20 -7 -39z"/>
<path d="M6135 10237 c-70 -40 -103 -127 -71 -189 14 -26 13 -29 -14 -58 -59
-63 -60 -178 -3 -232 41 -38 66 -48 122 -48 61 0 97 13 135 48 59 56 80 139
51 208 -13 32 -13 36 10 71 52 75 22 174 -62 209 -50 21 -122 17 -168 -9z
m138 -98 c16 -26 0 -65 -33 -79 -25 -10 -34 -10 -55 4 -30 20 -32 49 -4 77 24
24 76 23 92 -2z m64 -36 c-3 -10 -5 -2 -5 17 0 19 2 27 5 18 2 -10 2 -26 0
-35z m-225 10 c-3 -16 -7 -22 -10 -15 -4 13 4 42 11 42 2 0 2 -12 -1 -27z
m133 -173 c38 -42 -10 -130 -72 -130 -47 0 -69 36 -53 85 20 62 88 86 125 45z
m71 -65 c-4 -19 -11 -37 -16 -40 -6 -4 -6 4 0 20 6 15 10 38 11 53 0 15 3 21
6 14 3 -7 2 -28 -1 -47z m-249 1 c-1 -29 -5 -40 -10 -30 -8 13 -1 74 8 74 2 0
3 -20 2 -44z"/>
<path d="M29000 30223 c0 -10 7 -117 15 -238 8 -121 15 -237 15 -258 l0 -38
56 3 56 3 82 153 c89 167 93 169 95 42 1 -36 4 -95 8 -132 l6 -68 53 0 54 0
99 198 100 197 1 -60 c1 -107 62 -175 158 -175 40 0 42 -1 32 -20 -6 -11 -22
-28 -36 -37 -32 -21 -55 -9 -68 36 -8 28 -13 31 -47 31 -60 0 -67 -6 -59 -48
31 -173 238 -173 326 -1 50 100 67 227 42 311 -14 49 -75 105 -123 114 -48 9
-112 -11 -149 -44 -25 -24 -28 -24 -24 -7 3 11 9 28 13 38 6 15 0 17 -52 17
l-58 0 -80 -161 c-88 -177 -91 -178 -94 -39 -1 36 -4 95 -8 133 l-6 67 -51 0
-51 0 -85 -163 -85 -162 -6 55 c-4 30 -7 103 -8 163 l-1 107 -60 0 c-51 0 -60
-3 -60 -17z m74 -194 c4 -88 6 -163 3 -165 -2 -3 -8 53 -11 123 -4 70 -9 145
-12 166 -3 20 -2 37 4 37 5 0 12 -71 16 -161z m301 -61 l7 -168 24 0 c13 0 24
-5 24 -11 0 -20 -21 -49 -35 -49 -16 0 -22 38 -30 205 -3 66 -7 149 -10 185
-3 48 -2 57 4 35 5 -16 12 -105 16 -197z m191 86 c-36 -71 -65 -126 -65 -122
-1 11 123 258 127 254 2 -2 -26 -62 -62 -132z m301 64 c52 -49 7 -168 -64
-168 -61 0 -70 112 -13 163 37 33 47 33 77 5z m-166 -55 c-12 -20 -14 -14 -5
12 4 9 9 14 11 11 3 -2 0 -13 -6 -23z m246 -66 c-6 -62 -40 -171 -57 -182 -4
-3 1 19 12 48 11 28 21 68 22 87 4 47 17 110 24 110 2 0 2 -28 -1 -63z m-230
-51 c4 -7 0 -3 -9 7 -11 12 -18 34 -17 56 l1 36 9 -44 c4 -24 12 -48 16 -55z
m-630 -188 c-2 -13 -4 -5 -4 17 -1 22 1 32 4 23 2 -10 2 -28 0 -40z"/>
<path d="M28650 29595 l0 -25 815 0 815 0 0 25 0 25 -815 0 -815 0 0 -25z"/>
<path d="M29000 24573 c0 -10 7 -117 15 -238 8 -121 15 -237 15 -258 l0 -38
56 3 56 3 81 154 c90 169 94 171 96 41 1 -36 4 -95 8 -132 l6 -68 53 0 54 0
110 220 110 220 100 0 c99 0 114 -6 84 -30 -45 -38 -143 -240 -168 -349 l-14
-61 58 0 58 0 12 48 c31 124 108 274 184 359 32 36 47 62 52 92 l7 41 -124 0
c-68 0 -167 3 -220 6 l-97 7 -78 -164 c-87 -180 -90 -181 -93 -39 -1 36 -4 95
-8 133 l-6 67 -51 0 -51 0 -85 -162 -85 -163 -6 60 c-4 33 -7 106 -8 163 l-1
102 -60 0 c-51 0 -60 -3 -60 -17z m74 -189 c4 -86 5 -158 3 -161 -3 -2 -8 53
-11 124 -4 70 -9 143 -12 161 -3 17 -1 32 4 32 5 0 12 -70 16 -156z m301 -63
l7 -171 24 0 c13 0 24 -5 24 -11 0 -20 -21 -49 -35 -49 -15 0 -21 42 -30 215
-3 61 -8 139 -10 175 -3 45 -2 57 4 39 5 -15 12 -104 16 -198z m201 103 c-30
-60 -55 -106 -55 -102 -1 11 103 218 107 214 2 -2 -22 -53 -52 -112z m189
-245 c-19 -52 -34 -86 -35 -76 0 20 60 180 66 175 2 -3 -12 -47 -31 -99z
m-678 -71 c-2 -13 -4 -5 -4 17 -1 22 1 32 4 23 2 -10 2 -28 0 -40z"/>
<path d="M28710 23955 l0 -25 825 0 825 0 0 25 0 25 -825 0 -825 0 0 -25z"/>
<path d="M27700 20935 l0 -2755 25 0 25 0 0 2755 0 2755 -25 0 -25 0 0 -2755z"/>
<path d="M29100 18848 c0 -13 7 -122 15 -243 8 -121 15 -235 15 -252 l0 -33
54 0 55 0 83 158 c92 174 94 175 97 31 0 -36 4 -94 7 -128 l7 -61 53 0 54 0
135 270 c74 148 135 272 135 275 0 3 -27 5 -60 5 l-60 0 -77 -155 c-48 -95
-80 -150 -85 -142 -4 7 -8 42 -8 78 0 36 -3 100 -6 142 l-7 77 -52 0 -53 0
-82 -160 c-46 -88 -85 -158 -87 -156 -3 3 -8 73 -11 158 l-7 153 -57 3 c-55 3
-58 2 -58 -20z m74 -194 c4 -91 5 -168 3 -170 -3 -3 -8 53 -11 123 -4 70 -9
147 -13 171 -3 24 -1 42 4 42 6 0 13 -70 17 -166z m301 -66 l7 -158 24 0 c13
0 24 -5 24 -11 0 -20 -21 -49 -35 -49 -18 0 -22 31 -30 190 -3 69 -7 157 -10
195 -4 58 -3 63 5 30 5 -22 12 -111 15 -197z m235 182 c-12 -23 -24 -40 -26
-37 -3 3 4 24 16 47 12 23 24 40 26 37 3 -3 -4 -24 -16 -47z m-347 -105 c-3
-9 -8 -14 -10 -11 -3 3 -2 9 2 15 9 16 15 13 8 -4z m-176 -272 c-3 -10 -5 -4
-5 12 0 17 2 24 5 18 2 -7 2 -21 0 -30z"/>
<path d="M29827 18853 c-3 -5 -22 -66 -42 -138 -21 -71 -40 -136 -42 -142 -4
-10 10 -13 51 -13 40 0 58 4 62 14 9 24 61 40 90 28 64 -30 41 -150 -35 -182
-26 -10 -35 -10 -56 4 -20 13 -25 25 -25 56 0 44 -3 45 -72 34 -37 -6 -38 -8
-38 -48 0 -121 140 -187 261 -123 133 71 154 283 34 350 -11 6 -43 14 -71 17
-48 5 -51 6 -43 28 8 21 14 22 103 22 l94 0 7 33 c4 17 9 40 11 50 5 16 -6 17
-140 17 -80 0 -147 -3 -149 -7z m184 -222 c16 -16 29 -36 29 -44 0 -9 3 -23 7
-33 4 -12 3 -15 -5 -10 -7 4 -12 17 -12 28 0 11 -16 36 -36 54 -19 19 -30 34
-24 34 6 0 25 -13 41 -29z m22 -152 c-6 -6 -7 3 -4 23 4 28 6 29 9 9 2 -13 0
-27 -5 -32z"/>
<path d="M28620 18215 l0 -25 885 0 885 0 0 25 0 25 -885 0 -885 0 0 -25z"/>
<path d="M29150 15953 c0 -10 7 -117 15 -238 8 -121 15 -237 15 -258 l0 -38
57 3 56 3 81 152 c89 167 93 169 95 43 1 -36 4 -96 8 -133 l6 -68 54 3 54 3
140 273 140 272 -63 0 -63 0 -80 -161 c-88 -177 -91 -178 -94 -39 -1 36 -4 95
-8 133 l-6 67 -52 0 c-41 0 -54 -4 -60 -17 -3 -10 -41 -83 -83 -163 l-77 -145
-6 55 c-4 30 -7 103 -8 163 l-1 107 -60 0 c-51 0 -60 -3 -60 -17z m73 -203 c5
-182 1 -173 -12 25 -7 114 -6 155 4 143 1 -2 5 -77 8 -168z m302 -52 c7 -154
9 -168 25 -168 11 0 22 -4 25 -10 8 -14 -13 -50 -30 -50 -15 0 -21 42 -30 215
-3 61 -8 139 -10 175 -4 48 -2 57 4 35 5 -16 12 -105 16 -197z m215 132 c-22
-44 -42 -80 -45 -80 -3 0 13 36 35 80 22 44 42 80 45 80 3 0 -13 -36 -35 -80z
m-319 -53 c-10 -9 -11 -8 -5 6 3 10 9 15 12 12 3 -3 0 -11 -7 -18z m-184 -289
c-2 -13 -4 -5 -4 17 -1 22 1 32 4 23 2 -10 2 -28 0 -40z"/>
<path d="M29906 15804 c-102 -114 -141 -165 -147 -192 -15 -64 -17 -62 87 -62
l97 0 -7 -50 c-4 -28 -9 -57 -13 -66 -5 -13 4 -15 53 -12 l58 3 8 40 c17 87
16 85 53 85 35 0 37 2 50 68 6 31 6 32 -29 32 -33 0 -36 2 -31 23 10 43 55
270 55 278 0 5 -21 9 -47 8 l-48 0 -139 -155z m132 -110 c-22 -115 -44 -213
-48 -217 -6 -7 16 113 71 381 6 30 13 52 15 50 2 -3 -15 -99 -38 -214z m-63
-8 c-6 -31 -11 -36 -36 -36 -16 0 -29 3 -29 7 0 10 63 74 67 69 3 -2 1 -20 -2
-40z"/>
<path d="M28650 15325 l0 -25 860 0 860 0 0 25 0 25 -860 0 -860 0 0 -25z"/>
<path d="M29020 13182 c0 -4 -23 -116 -50 -248 -28 -131 -53 -251 -56 -266
l-6 -28 59 0 59 0 17 83 c15 69 23 88 53 117 42 42 35 47 120 -102 l55 -98
237 2 236 3 12 48 12 47 -129 0 c-71 0 -129 2 -129 5 0 2 20 102 45 221 25
119 45 218 45 220 0 2 -63 4 -141 4 l-140 0 -102 -90 c-56 -49 -105 -90 -108
-90 -4 0 2 37 12 83 10 45 19 85 19 90 0 4 -27 7 -60 7 -33 0 -60 -4 -60 -8z
m411 -250 c-27 -128 -50 -235 -52 -237 -4 -4 -149 246 -149 257 0 7 242 220
246 216 1 -2 -19 -108 -45 -236z m-377 86 c-13 -62 -27 -124 -29 -136 -4 -17
38 15 155 118 89 78 163 140 166 137 3 -3 -38 -42 -90 -88 -85 -74 -94 -84
-84 -103 6 -12 40 -72 76 -134 35 -62 62 -115 59 -118 -3 -3 -38 52 -78 123
-40 70 -74 130 -75 132 -4 5 -39 -21 -93 -71 -45 -42 -50 -50 -61 -116 -7 -40
-18 -72 -23 -72 -5 0 -7 10 -3 23 3 12 24 113 47 224 23 111 45 200 49 198 4
-3 -3 -55 -16 -117z m439 -103 c-25 -121 -47 -222 -49 -224 -13 -14 -7 26 32
214 45 215 51 241 59 234 2 -3 -17 -103 -42 -224z"/>
<path d="M29793 13148 c4 -24 12 -148 18 -275 l12 -233 56 0 56 0 80 154 c44
85 83 152 87 149 5 -2 8 -28 8 -56 0 -29 3 -96 7 -149 l6 -98 56 0 56 0 138
275 137 275 -63 0 -63 0 -79 -162 -80 -161 -7 49 c-3 27 -7 79 -7 115 -1 36
-4 87 -7 113 l-7 47 -51 -3 -50 -3 -77 -148 c-41 -81 -80 -152 -86 -158 -10
-10 -23 136 -23 258 l0 53 -61 0 -61 0 5 -42z m74 -248 l0 -95 -7 95 c-4 52
-8 129 -7 170 l0 75 7 -75 c4 -41 7 -118 7 -170z m297 63 c9 -199 11 -209 42
-217 21 -6 22 -9 12 -31 -10 -23 -48 -36 -48 -17 0 24 -21 337 -25 385 -4 35
-2 57 3 53 5 -3 12 -81 16 -173z m256 159 c0 -5 -7 -17 -16 -28 -8 -10 -14
-14 -11 -9 2 6 7 18 10 28 7 17 17 23 17 9z m-379 -165 c-10 -9 -11 -8 -5 6 3
10 9 15 12 12 3 -3 0 -11 -7 -18z m-164 -254 c-3 -10 -5 -2 -5 17 0 19 2 27 5
18 2 -10 2 -26 0 -35z"/>
<path d="M29100 10308 c0 -24 7 -142 15 -263 8 -121 15 -226 15 -232 0 -9 17
-13 53 -13 l52 0 54 103 c29 56 68 127 85 157 l31 55 6 -60 c4 -33 7 -90 8
-126 1 -37 4 -81 7 -98 6 -30 8 -31 58 -31 l51 0 113 223 c85 168 111 212 106
181 l-5 -41 38 -6 c65 -11 69 -9 82 33 14 46 45 66 86 56 14 -4 30 -17 34 -29
15 -39 -9 -77 -87 -140 -153 -125 -179 -157 -197 -245 l-7 -32 173 2 173 3 11
53 12 52 -94 0 c-52 0 -93 4 -91 9 2 5 40 38 85 75 44 36 90 78 101 93 62 87
40 196 -48 245 -27 15 -50 18 -97 16 -52 -3 -69 -9 -103 -36 -44 -36 -47 -35
-25 8 l16 30 -61 0 -60 0 -77 -155 c-43 -85 -81 -155 -84 -155 -4 0 -10 70
-14 155 l-7 155 -53 0 -54 0 -84 -161 c-94 -180 -97 -181 -97 -20 0 42 -3 100
-6 129 l-7 52 -53 0 -54 0 0 -42z m73 -193 c5 -172 -6 -120 -17 75 -4 67 -3
109 3 100 4 -8 11 -87 14 -175z m302 -87 c7 -116 7 -118 31 -118 28 0 28 -1
12 -35 -7 -15 -18 -25 -27 -23 -13 3 -18 33 -27 183 -7 99 -12 200 -12 225 1
61 15 -85 23 -232z m180 122 c-41 -82 -77 -150 -80 -150 -3 0 29 68 70 150 41
83 77 150 80 150 3 0 -29 -67 -70 -150z m171 73 c-8 -15 -15 -22 -16 -15 0 14
22 53 28 47 2 -2 -3 -16 -12 -32z m226 -11 c3 -9 2 -26 -2 -37 -6 -15 -8 -10
-8 18 0 40 3 47 10 19z m-863 -347 c0 -5 -4 -3 -9 5 -5 8 -9 22 -9 30 0 16 17
-16 18 -35z m592 12 c-10 -9 -11 -8 -5 6 3 10 9 15 12 12 3 -3 0 -11 -7 -18z"/>
<path d="M28700 9698 l0 -25 302 -6 c166 -4 418 -7 560 -7 l258 0 0 25 0 25
-258 0 c-142 0 -394 3 -560 7 l-302 6 0 -25z"/>
<path d="M25652 8003 c-41 -20 -69 -54 -84 -104 -9 -32 -8 -46 5 -81 16 -39
16 -42 -2 -54 -53 -37 -69 -165 -28 -224 42 -62 137 -88 214 -59 93 35 150
167 107 250 -14 28 -14 32 1 49 43 47 48 128 12 184 -35 53 -155 74 -225 39z
m136 -119 c4 -40 -19 -64 -62 -64 -56 0 -74 42 -35 81 14 14 30 19 57 17 33
-3 37 -6 40 -34z m59 4 c-3 -8 -6 -5 -6 6 -1 11 2 17 5 13 3 -3 4 -12 1 -19z
m-226 -19 c-9 -22 -10 -22 -10 -3 -1 11 2 24 6 27 12 12 14 0 4 -24z m134
-166 c36 -36 -9 -133 -62 -133 -45 0 -63 17 -63 61 0 72 80 118 125 72z m65
-83 l-11 -25 6 25 c2 14 5 36 6 50 l2 25 4 -25 c2 -14 -1 -37 -7 -50z m-243
-7 c-2 -16 -4 -5 -4 22 0 28 2 40 4 28 2 -13 2 -35 0 -50z"/>
<path d="M29145 7543 c2 -16 9 -127 15 -248 6 -121 13 -230 16 -242 4 -20 10
-23 57 -23 l52 0 75 141 c41 78 80 149 86 157 9 12 13 -21 19 -141 l7 -157 57
0 56 0 133 265 c72 146 132 267 132 270 0 3 -26 5 -58 5 l-57 0 -80 -157 -79
-158 -7 60 c-4 33 -7 97 -8 142 -1 111 -3 113 -65 113 l-51 0 -80 -155 c-44
-85 -83 -155 -87 -155 -5 0 -8 22 -8 48 0 27 -3 97 -7 155 l-6 107 -58 0 c-58
0 -58 0 -54 -27z m72 -228 l0 -100 -7 95 c-4 52 -8 122 -7 155 l0 60 7 -55 c5
-30 8 -100 7 -155z m297 58 c10 -210 13 -232 42 -239 20 -5 21 -9 12 -30 -12
-26 -48 -33 -48 -9 0 40 -21 374 -25 398 -2 15 -1 27 4 27 5 0 11 -66 15 -147z
m187 -2 c-39 -78 -73 -141 -76 -141 -3 0 28 65 67 145 40 79 74 143 76 141 2
-2 -29 -67 -67 -145z m-474 -193 c-3 -8 -6 -5 -6 6 -1 11 2 17 5 13 3 -3 4
-12 1 -19z m0 -90 c-3 -7 -5 -2 -5 12 0 14 2 19 5 13 2 -7 2 -19 0 -25z"/>
<path d="M29973 7525 c-23 -24 -64 -53 -91 -66 -46 -22 -52 -28 -62 -72 -7
-26 -10 -50 -8 -53 3 -2 33 4 67 15 45 14 61 16 61 7 0 -7 -13 -77 -30 -154
-16 -78 -30 -149 -30 -157 0 -11 13 -15 53 -15 l54 0 53 258 c29 141 55 263
57 270 4 8 -7 12 -38 10 -37 -1 -50 -7 -86 -43z m15 -244 c-23 -112 -43 -200
-45 -194 -2 5 10 74 26 153 43 211 53 252 57 248 2 -2 -15 -96 -38 -207z"/>
<path d="M2544 7531 c-56 -14 -94 -44 -119 -95 -40 -81 -37 -89 41 -100 39 -6
42 -4 47 22 8 42 39 75 70 75 38 0 57 -20 57 -58 0 -34 -14 -49 -174 -188 -67
-59 -98 -105 -111 -164 l-7 -33 171 0 c93 0 172 4 175 8 3 5 8 28 12 50 l7 42
-92 0 c-50 0 -91 4 -91 9 0 5 21 26 48 46 73 59 142 127 158 157 22 42 18 119
-9 158 -38 58 -114 87 -183 71z m-66 -116 c-6 -14 -13 -23 -15 -21 -5 5 15 46
22 46 3 0 -1 -11 -7 -25z m219 -57 c-2 -13 -4 -3 -4 22 0 25 2 35 4 23 2 -13
2 -33 0 -45z m-264 -293 c-3 -9 -8 -14 -10 -11 -3 3 -2 9 2 15 9 16 15 13 8
-4z"/>
<path d="M27837 6718 c-4 -392 -7 -1124 -7 -1625 l0 -913 25 0 25 0 0 913 c0
501 3 1233 7 1625 l6 712 -25 0 -25 0 -6 -712z"/>
<path d="M24660 7060 l0 -150 135 0 135 0 0 150 0 150 -135 0 -135 0 0 -150z
m220 0 l0 -101 -82 3 -83 3 -3 98 -3 97 86 0 85 0 0 -100z"/>
<path d="M28640 6895 l0 -25 845 0 845 0 0 25 0 25 -845 0 -845 0 0 -25z"/>
<path d="M20856 3568 c-9 -36 -8 -38 24 -38 17 0 30 -3 30 -6 0 -11 -81 -289
-96 -331 -13 -37 -20 -43 -44 -43 -20 0 -29 -6 -34 -22 -13 -50 -23 -48 269
-48 213 0 275 3 275 13 0 6 3 22 6 35 6 19 3 22 -25 22 -17 0 -31 3 -31 6 0
11 81 289 96 332 13 34 20 42 40 42 17 0 27 8 34 26 6 14 10 27 10 30 0 2
-123 4 -274 4 l-274 0 -6 -22z m108 -215 c-30 -103 -54 -196 -54 -205 0 -13
-8 -18 -31 -18 -25 0 -29 3 -24 19 25 80 105 366 105 377 0 9 11 14 29 14 l28
0 -53 -187z m270 0 c-30 -103 -54 -196 -54 -205 0 -13 -8 -18 -31 -18 -20 0
-29 4 -26 13 2 6 29 99 58 204 53 187 55 193 80 193 l26 0 -53 -187z m-54 171
c0 -11 -81 -289 -96 -331 l-16 -43 -54 0 c-30 0 -54 3 -54 6 0 11 90 317 101
347 11 25 16 27 65 27 30 0 54 -3 54 -6z"/>
<path d="M24156 3568 c-9 -36 -8 -38 25 -38 37 0 39 15 -29 -215 l-47 -160
-33 -3 c-17 -2 -32 -9 -32 -15 0 -7 -3 -22 -6 -34 l-6 -23 411 0 c322 0 411 3
411 13 0 6 3 22 6 35 6 19 3 22 -25 22 -17 0 -31 2 -31 4 0 18 102 352 111
362 6 8 20 14 30 14 16 0 39 33 39 56 0 2 -184 4 -409 4 l-409 0 -6 -22z m159
-45 c-16 -43 -105 -358 -105 -375 0 -14 -8 -18 -31 -18 -25 0 -30 3 -25 16 15
39 106 364 106 378 0 11 10 16 31 16 26 0 30 -3 24 -17z m270 0 c-15 -37 -105
-359 -105 -375 0 -13 -8 -18 -31 -18 -25 0 -30 3 -25 16 15 39 106 364 106
378 0 11 10 16 31 16 26 0 30 -3 24 -17z m270 0 c-15 -37 -105 -359 -105 -375
0 -13 -8 -18 -31 -18 -25 0 -30 3 -25 16 15 39 106 364 106 378 0 11 10 16 31
16 26 0 30 -3 24 -17z m-375 0 c0 -5 -24 -89 -53 -188 l-52 -180 -57 -3 c-32
-2 -58 -2 -58 0 0 18 102 353 111 364 12 15 109 20 109 7z m270 0 c0 -5 -24
-89 -53 -188 l-52 -180 -57 -3 c-32 -2 -58 -1 -58 2 0 18 102 352 111 362 12
15 109 20 109 7z"/>
<path d="M17420 3484 c-14 -35 -14 -34 20 -34 17 0 30 -5 30 -12 0 -17 -91
-329 -102 -350 -5 -10 -20 -18 -33 -18 -27 0 -29 -3 -39 -42 l-6 -28 139 0
c135 0 139 1 145 23 9 34 8 36 -23 44 l-28 8 50 175 c27 96 54 181 59 188 6 6
21 12 33 12 20 0 34 21 35 53 0 4 -61 7 -135 7 l-135 0 -10 -26z m158 -36 c-3
-7 -29 -100 -59 -205 -50 -177 -56 -193 -76 -193 -13 0 -23 5 -23 11 0 5 23
88 50 184 28 96 50 183 50 194 0 17 6 21 31 21 21 0 30 -4 27 -12z"/>
<path d="M10477 3443 c-7 -35 -2 -43 29 -43 13 0 24 -3 24 -7 -1 -22 -101
-348 -111 -359 -6 -8 -22 -14 -34 -14 -20 0 -34 -21 -35 -52 0 -5 62 -8 139
-8 135 0 139 1 145 23 9 35 8 37 -24 37 -16 0 -30 3 -30 8 0 4 24 88 53 187
49 171 53 180 78 183 24 3 49 35 49 62 0 6 -58 10 -139 10 l-139 0 -5 -27z
m159 -40 c-36 -113 -106 -362 -106 -375 0 -13 -8 -18 -31 -18 -26 0 -30 3 -24
18 15 36 105 358 105 374 0 13 8 18 31 18 24 0 29 -3 25 -17z"/>
<path d="M6810 3386 c0 -8 -3 -21 -6 -30 -5 -12 2 -18 25 -22 17 -4 31 -8 31
-11 0 -18 -102 -349 -111 -359 -6 -8 -22 -14 -34 -14 -20 0 -34 -21 -35 -52 0
-5 124 -8 275 -8 151 0 275 3 275 8 0 4 3 17 6 30 6 19 3 22 -25 22 -17 0 -31
3 -31 8 0 4 24 88 53 187 50 172 53 180 79 183 19 2 29 11 37 34 6 17 11 33
11 34 0 2 -124 4 -275 4 -231 0 -275 -2 -275 -14z m157 -48 c-14 -39 -107
-368 -107 -382 0 -11 -9 -16 -31 -16 -26 0 -30 3 -24 18 15 36 105 358 105
374 0 13 8 18 31 18 21 0 30 -4 26 -12z m269 -4 c-15 -39 -106 -364 -106 -378
0 -11 -10 -16 -31 -16 -26 0 -30 3 -24 18 15 36 105 358 105 374 0 13 8 18 31
18 25 0 30 -3 25 -16z m-108 -9 c6 -5 -98 -348 -109 -361 -12 -15 -109 -20
-109 -6 0 4 24 88 53 187 51 176 53 180 82 186 26 5 73 2 83 -6z"/>
<path d="M3266 3368 c-11 -41 -7 -48 25 -48 24 0 29 -4 25 -17 -64 -226 -100
-340 -108 -350 -6 -7 -21 -13 -33 -13 -20 0 -34 -21 -35 -52 0 -5 185 -8 410
-8 347 0 410 2 410 14 0 8 3 21 6 30 5 13 -1 16 -25 16 -17 0 -31 3 -31 8 0
12 98 351 105 362 3 5 17 10 30 10 17 0 26 8 34 31 6 18 11 34 11 35 0 2 -184
4 -409 4 l-409 0 -6 -22z m160 -43 c-16 -43 -106 -361 -106 -377 0 -13 -8 -18
-31 -18 -25 0 -30 3 -25 16 15 39 106 364 106 378 0 11 10 16 31 16 23 0 30
-4 25 -15z m270 -2 c-18 -45 -106 -358 -106 -374 0 -15 -7 -19 -31 -19 -25 0
-30 3 -25 16 15 39 106 364 106 378 0 11 10 16 31 16 25 0 30 -3 25 -17z m270
0 c-18 -45 -106 -358 -106 -374 0 -15 -7 -19 -31 -19 -25 0 -30 3 -25 16 15
39 106 364 106 378 0 11 10 16 31 16 25 0 30 -3 25 -17z m-380 -20 c-3 -10
-26 -90 -51 -178 -26 -88 -52 -166 -57 -172 -11 -14 -108 -18 -108 -5 0 12 99
353 106 363 3 5 30 9 60 9 48 0 55 -2 50 -17z m270 0 c-3 -10 -26 -90 -51
-178 -26 -88 -52 -166 -57 -172 -11 -14 -108 -18 -108 -5 0 12 98 351 105 362
3 5 31 10 61 10 48 0 55 -2 50 -17z"/>
<path d="M14347 2336 c-116 -32 -162 -151 -90 -237 16 -18 65 -49 119 -75 107
-51 123 -74 80 -111 -36 -31 -112 -32 -150 -2 -20 16 -26 29 -26 60 0 43 0 43
-75 32 l-47 -6 7 -51 c3 -28 15 -65 26 -83 64 -103 298 -103 371 0 18 25 23
46 23 94 0 79 -18 99 -147 164 -78 39 -98 54 -98 70 0 30 28 48 73 49 64 0 97
-24 97 -72 0 -27 2 -28 49 -28 59 0 76 16 67 62 -20 108 -150 170 -279 134z
m195 -83 c27 -30 42 -63 29 -63 -5 0 -14 14 -21 30 -7 17 -22 37 -34 45 -11 8
-16 15 -10 15 6 0 22 -12 36 -27z m-236 -5 c-21 -29 -20 -77 0 -107 9 -12 58
-42 109 -66 51 -23 100 -53 109 -66 20 -29 21 -79 1 -105 -13 -17 -13 -15 -3
17 18 61 -2 87 -111 141 -52 25 -103 56 -115 67 -27 27 -28 91 -2 120 25 28
31 27 12 -1z m-72 -324 c4 -14 19 -37 33 -50 14 -13 22 -24 16 -24 -15 0 -60
53 -66 78 -3 12 -2 22 3 22 4 0 11 -12 14 -26z"/>
<path d="M13631 2088 c-29 -139 -55 -263 -58 -275 -5 -22 -2 -23 55 -23 l59 0
19 98 20 97 92 7 c129 10 164 21 205 67 83 92 72 215 -24 263 -28 15 -61 18
-175 18 l-140 0 -53 -252z m107 190 c-3 -7 -25 -109 -49 -225 -24 -117 -48
-213 -52 -213 -5 0 -6 8 -3 18 2 9 24 110 47 225 23 114 47 207 52 207 5 0 7
-6 5 -12z m264 -16 c24 -20 32 -73 19 -115 -12 -36 -57 -85 -68 -74 -3 4 -1 7
5 7 23 0 52 63 52 112 0 41 -4 50 -32 73 -21 16 -26 23 -13 19 11 -4 28 -14
37 -22z m-44 -73 c3 -30 -2 -41 -28 -63 -28 -23 -40 -26 -106 -26 -67 0 -75 2
-70 18 3 9 8 35 12 57 4 22 9 44 11 48 3 4 44 6 91 5 l87 -3 3 -36z"/>
<path d="M13965 1873 c-3 -21 -9 -48 -12 -60 -5 -22 -2 -23 55 -23 66 0 66 0
77 74 l7 46 -60 0 -60 0 -7 -37z m65 -23 c0 -5 -4 -10 -10 -10 -5 0 -10 5 -10
10 0 6 5 10 10 10 6 0 10 -4 10 -10z"/>
<path d="M11560 1311 c0 -210 1 -219 20 -224 17 -4 20 -14 20 -61 0 -53 1 -56
25 -56 24 0 25 3 25 58 l0 59 518 6 c284 4 915 7 1402 7 l885 1 3 -101 c3 -99
3 -100 27 -100 25 0 25 0 25 105 l0 105 833 0 c457 0 1072 3 1365 7 l532 6 0
-106 0 -107 25 0 25 0 0 103 0 104 1013 6 c556 4 1173 7 1370 7 l357 0 0 -80
c0 -79 0 -80 25 -80 25 0 25 1 25 78 l0 79 518 6 c284 4 901 7 1370 7 l852 0
0 -86 c0 -74 2 -85 16 -80 9 3 20 6 25 6 5 0 9 36 9 80 0 75 1 80 23 84 12 3
643 7 1402 9 l1380 5 -3 -88 c-4 -87 -4 -87 22 -92 l26 -5 0 81 c0 44 4 86 8
92 5 9 372 14 1367 19 l1360 8 -3 -97 c-3 -96 -3 -96 21 -96 24 0 24 1 29 118
3 64 3 188 0 275 l-5 157 -8468 0 -8469 0 0 -219z"/>
<path d="M22965 653 c-131 -146 -162 -192 -164 -245 -1 -16 10 -18 99 -18 99
0 100 0 95 -22 -3 -13 -9 -42 -14 -65 l-9 -43 59 0 c45 0 59 3 59 15 0 7 5 37
11 65 10 48 12 50 44 50 31 0 35 4 44 38 16 55 14 62 -17 62 -16 0 -31 2 -34
5 -3 3 10 75 27 160 l33 155 -47 -1 -46 0 -140 -156z m124 -122 c-23 -116 -45
-209 -47 -206 -2 2 15 99 39 214 23 116 44 209 46 207 3 -2 -15 -99 -38 -215z
m-63 -6 c-6 -31 -11 -35 -36 -35 -17 0 -30 2 -30 5 0 9 63 75 68 71 2 -3 1
-21 -2 -41z"/>
<path d="M28592 799 c-19 -5 -53 -29 -76 -53 -93 -92 -135 -312 -79 -408 57
-98 187 -113 269 -31 47 46 66 94 67 163 0 59 -11 90 -50 131 l-24 26 50 7
c44 6 51 10 51 29 -1 36 -36 104 -64 122 -32 21 -100 28 -144 14z m82 -105
c22 -21 22 -68 0 -60 -9 3 -36 6 -60 6 -41 0 -44 1 -34 20 9 18 54 49 72 50 4
0 14 -7 22 -16z m-178 -110 c-8 -33 -20 -84 -25 -114 l-10 -55 3 61 c3 55 35
179 43 170 2 -2 -3 -30 -11 -62z m225 -76 c5 -22 8 -42 5 -45 -3 -3 -8 8 -11
23 -4 16 -14 43 -23 59 -15 28 -15 29 1 16 9 -7 22 -31 28 -53z m-84 24 c39
-25 32 -114 -12 -158 -31 -31 -59 -30 -84 2 -25 31 -26 62 -7 108 20 48 68 70
103 48z m80 -104 c-3 -8 -6 -5 -6 6 -1 11 2 17 5 13 3 -3 4 -12 1 -19z"/>
<path d="M25645 668 c-21 -73 -40 -141 -42 -150 -4 -13 5 -18 41 -23 42 -7 49
-5 71 19 29 32 83 36 108 8 47 -52 -15 -172 -88 -172 -25 0 -55 38 -55 70 0
30 -1 30 -55 30 l-55 0 0 -33 c0 -49 39 -118 80 -142 55 -31 135 -27 196 10
93 58 132 191 83 286 -24 48 -91 83 -145 77 -36 -4 -40 2 -24 33 9 17 22 19
103 19 l93 0 10 50 11 50 -147 0 -146 0 -39 -132z m229 -109 c20 -23 26 -41
26 -77 0 -26 -4 -53 -9 -61 -5 -8 -7 4 -4 32 7 57 -11 103 -46 122 -18 10 -21
14 -9 15 9 0 28 -14 42 -31z"/>
<path d="M14613 746 c-23 -24 -66 -56 -96 -71 -50 -26 -54 -32 -64 -77 -11
-56 -9 -57 72 -29 30 11 55 18 55 16 0 -2 -16 -78 -35 -169 -19 -92 -35 -169
-35 -171 0 -3 25 -5 55 -5 48 0 55 3 60 23 15 64 105 503 105 514 0 9 -13 13
-37 12 -31 -1 -46 -9 -80 -43z m13 -235 c-23 -110 -44 -202 -48 -206 -3 -3 12
81 34 187 41 202 45 218 51 218 3 0 -14 -90 -37 -199z"/>
<path d="M17358 770 c-20 -11 -45 -32 -56 -47 -19 -27 -47 -111 -40 -118 2 -2
26 -7 54 -10 51 -7 51 -7 63 26 25 71 84 94 117 44 27 -41 4 -76 -117 -176
-109 -90 -145 -139 -163 -222 l-6 -27 174 0 173 0 7 39 c3 22 9 46 12 55 5 14
-6 16 -90 16 -53 0 -96 3 -95 8 0 4 42 41 92 82 108 89 131 124 131 197 0 57
-17 90 -67 127 -40 29 -140 33 -189 6z m-8 -78 c0 -5 -7 -17 -15 -28 -14 -18
-14 -17 -4 9 12 27 19 34 19 19z m220 -55 c0 -12 -4 -28 -8 -34 -5 -7 -8 4 -7
26 0 22 3 37 8 34 4 -2 7 -14 7 -26z m-279 -320 c-10 -9 -11 -8 -5 6 3 10 9
15 12 12 3 -3 0 -11 -7 -18z"/>
<path d="M20177 775 c-62 -22 -105 -70 -121 -136 -5 -25 -3 -27 32 -33 20 -4
45 -9 55 -12 13 -4 19 2 23 26 7 31 45 70 70 70 21 0 54 -37 54 -60 0 -33 -35
-60 -79 -60 -42 0 -44 -2 -56 -70 l-6 -36 38 4 c50 4 76 -15 76 -58 0 -24 -7
-40 -27 -57 -53 -45 -126 -17 -126 48 0 30 -2 31 -31 25 -17 -3 -42 -6 -55 -6
-20 0 -24 -5 -24 -30 0 -44 36 -108 73 -130 66 -40 164 -35 227 12 65 47 95
164 57 218 -15 22 -15 25 8 52 69 82 26 207 -83 238 -47 13 -58 12 -105 -5z
m173 -144 c0 -32 -6 -24 -14 19 -4 25 -3 31 4 20 5 -8 10 -26 10 -39z m-21
-216 c0 -5 -4 -3 -9 5 -5 8 -9 22 -9 30 0 16 17 -16 18 -35z m-261 -70 c-3 -3
-9 2 -12 12 -6 14 -5 15 5 6 7 -7 10 -15 7 -18z"/>
<path d="M11745 766 c-123 -53 -208 -321 -144 -452 30 -63 75 -87 149 -82 77
6 123 41 167 128 57 114 70 288 26 348 -49 66 -127 89 -198 58z m105 -105 c23
-44 2 -191 -39 -270 -9 -19 -29 -44 -44 -54 -24 -19 -27 -19 -51 -3 -23 14
-26 23 -26 72 0 98 47 240 87 263 28 16 61 13 73 -8z m67 -108 c-6 -68 -25
-149 -33 -140 -2 2 2 33 11 68 8 35 15 81 15 102 0 20 3 37 6 37 4 0 4 -30 1
-67z m-253 9 c-8 -26 -18 -74 -23 -107 -8 -60 -9 -60 -10 -14 -1 50 29 169 43
169 2 0 -2 -21 -10 -48z"/>
<path d="M29187 674 c-4 -4 -39 -6 -80 -5 l-73 2 -38 -183 c-21 -101 -40 -193
-43 -206 -5 -21 -2 -22 51 -22 50 0 56 2 61 22 3 13 14 64 25 114 25 118 33
137 66 163 26 21 64 29 64 13 0 -4 -13 -70 -30 -147 -16 -77 -30 -145 -30
-152 0 -9 17 -13 55 -13 30 0 55 2 55 4 0 21 44 211 56 244 15 42 53 72 89 72
20 0 20 -5 -15 -168 -16 -78 -30 -144 -30 -147 0 -3 25 -5 55 -5 48 0 55 3 60
23 32 137 55 258 55 294 0 85 -79 124 -172 85 -50 -21 -50 -21 -86 -2 -36 20
-83 26 -95 14z m-131 -196 c-15 -73 -31 -142 -37 -153 l-9 -20 4 20 c3 11 17
82 32 157 15 76 30 136 32 133 3 -2 -8 -64 -22 -137z m224 107 c6 -16 4 -38
-5 -67 -7 -24 -21 -80 -31 -126 -9 -45 -19 -80 -21 -78 -3 2 7 62 22 131 22
102 25 132 16 152 -8 16 -8 22 0 18 5 -4 14 -18 19 -30z m207 8 c7 -29 -32
-245 -49 -273 -7 -11 -8 -8 -4 10 37 164 49 252 38 270 -7 12 -8 20 -2 20 5 0
13 -12 17 -27z"/>
</g>
</svg>
